<?xml version="1.0" standalone="no"?>
<!DOCTYPE svg PUBLIC "-//W3C//DTD SVG 20010904//EN"
 "http://www.w3.org/TR/2001/REC-SVG-20010904/DTD/svg10.dtd">
<svg version="1.0" xmlns="http://www.w3.org/2000/svg"
 width="2130.000000pt" height="2130.000000pt" viewBox="0 0 2130.000000 2130.000000"
 preserveAspectRatio="xMidYMid meet">
<metadata>
Created by potrace 1.11, written by Peter Selinger 2001-2013
</metadata>
<g transform="translate(0.000000,2130.000000) scale(0.100000,-0.100000)"
fill="#000000" stroke="none">
<path d="M1927 21294 c-1 -1 -45 -4 -97 -7 -92 -6 -148 -12 -200 -22 -14 -3
-39 -7 -56 -10 -17 -2 -75 -16 -128 -30 -390 -101 -759 -335 -1017 -643 -188
-226 -313 -462 -395 -745 l-34 -119 0 -9092 0 -9093 30 -104 c43 -152 65 -210
131 -344 66 -136 77 -155 138 -245 153 -226 376 -440 611 -587 104 -65 286
-149 405 -189 61 -20 115 -37 120 -38 6 -2 35 -8 65 -15 43 -9 1981 -11 9155
-9 l9100 3 90 28 c335 105 605 263 837 489 176 172 305 349 409 563 50 103
128 314 143 387 34 165 43 219 52 318 7 81 7 17618 0 17680 -14 123 -19 152
-38 240 -20 94 -51 206 -67 245 -5 11 -19 47 -32 80 -94 250 -315 567 -518
745 -81 70 -208 165 -292 217 -177 111 -460 222 -649 256 -106 20 -143 25
-245 33 -55 5 -17512 12 -17518 8z m15864 -6871 c13 -16 12 -17 -3 -4 -17 13
-22 21 -14 21 2 0 10 -8 17 -17z m-7350 -1616 c-10 -9 -11 -8 -5 6 3 10 9 15
12 12 3 -3 0 -11 -7 -18z m3083 -3913 c3 -8 2 -12 -4 -9 -6 3 -10 10 -10 16 0
14 7 11 14 -7z m5116 -3108 c0 -2 -8 -10 -17 -17 -16 -13 -17 -12 -4 4 13 16
21 21 21 13z"/>
</g>
</svg>
