<?xml version="1.0" encoding="utf-8"?>
<!-- Generator: Adobe Illustrator 23.0.0, SVG Export Plug-In . SVG Version: 6.00 Build 0)  -->
<svg version="1.1" id="Layer_1" xmlns="http://www.w3.org/2000/svg" xmlns:xlink="http://www.w3.org/1999/xlink" x="0px" y="0px"
	 viewBox="0 0 200 200" style="enable-background:new 0 0 200 200;" xml:space="preserve">
<style type="text/css">
	.st0{fill:#FFFFFF;}
</style>
<path class="st0" d="M100,1.56C45.63,1.56,1.56,45.64,1.56,100c0,54.36,44.07,98.44,98.44,98.44c54.37,0,98.44-44.07,98.44-98.44
	C198.44,45.64,154.37,1.56,100,1.56z M72.45,141.17H53.26v-61.4h19.19V141.17z M62.37,72.08h-0.14c-6.94,0-11.45-4.69-11.45-10.64
	c0-6.06,4.64-10.66,11.72-10.66c7.08,0,11.43,4.59,11.57,10.65C74.07,67.38,69.58,72.08,62.37,72.08z M149.22,141.17h-21.76v-31.78
	c0-8.32-3.4-13.99-10.89-13.99c-5.73,0-8.9,3.83-10.39,7.52c-0.55,1.32-0.47,3.17-0.47,5.02v33.23H84.16c0,0,0.28-56.29,0-61.4
	h21.55v9.64c1.27-4.21,8.16-10.23,19.15-10.23c13.63,0,24.35,8.83,24.35,27.85V141.17z"/>
</svg>
