<?xml version="1.0" encoding="utf-8"?>
<!-- Generator: Adobe Illustrator 23.0.0, SVG Export Plug-In . SVG Version: 6.00 Build 0)  -->
<svg version="1.1" id="Layer_1" xmlns="http://www.w3.org/2000/svg" xmlns:xlink="http://www.w3.org/1999/xlink" x="0px" y="0px"
	 viewBox="0 0 200 200" style="enable-background:new 0 0 200 200;" xml:space="preserve">
<style type="text/css">
	.st0{fill:#FFFFFF;}
</style>
<path class="st0" d="M100,1.56C45.63,1.56,1.56,45.64,1.56,100c0,54.37,44.07,98.44,98.43,98.44c54.36,0,98.44-44.07,98.44-98.44
	C198.44,45.64,154.36,1.56,100,1.56z M121.73,83.33l-1.13,14.73h-15.1v51.16H86.43V98.06H76.25V83.33h10.18v-9.89
	c0-4.36,0.11-11.09,3.28-15.25c3.34-4.41,7.92-7.41,15.8-7.41c12.84,0,18.24,1.83,18.24,1.83l-2.54,15.08c0,0-4.24-1.23-8.2-1.23
	c-3.96,0-7.5,1.42-7.5,5.38v11.5H121.73z"/>
</svg>
