<?xml version="1.0" encoding="utf-8"?>
<!-- Generator: Adobe Illustrator 23.0.0, SVG Export Plug-In . SVG Version: 6.00 Build 0)  -->
<svg version="1.1" id="Isolation_Mode" xmlns="http://www.w3.org/2000/svg" xmlns:xlink="http://www.w3.org/1999/xlink" x="0px"
	 y="0px" viewBox="0 0 1920 657.69" style="enable-background:new 0 0 1920 657.69;" xml:space="preserve">
<style type="text/css">
	.st0{fill:#FFFFFF;}
</style>
<g>
	<g>
		<path class="st0" d="M908.89,295.43h-45.71L773.1,530.71v0.04h50.43l18.49-52.45h86.04l18.49,52.45h51.76L908.89,295.43z
			 M858.13,433.93l15.14-42.88c2.46-6.99,4.76-13.73,6.9-20.27c2.1-6.5,3.71-12.03,4.85-16.51c1.13,4.48,2.75,10.01,4.89,16.51
			c2.14,6.54,4.44,13.28,6.9,20.27l15.1,42.88H858.13z"/>
		<path class="st0" d="M1224.23,413.58c7.51-11.31,11.27-25.8,11.27-43.53c0-12.56-2.14-23.46-6.38-32.79
			c-4.28-9.29-10.09-17.08-17.48-23.34c-7.39-6.26-16.03-10.94-25.88-13.97c-9.85-3.03-20.27-4.52-31.25-4.52h-109.58v235.31h47.04
			v-84.71h47.4l42.03,84.71h54.1l-45.06-91.45C1205.45,433.48,1216.72,424.92,1224.23,413.58z M1153.49,401.67h-61.53v-60.52h61.53
			c10.54,0,18.78,2.3,24.71,6.9c5.94,4.6,8.88,12.27,8.88,23.01C1187.08,391.45,1175.9,401.67,1153.49,401.67z"/>
		<path class="st0" d="M1291.98,295.43v235.31h47.08V295.43H1291.98z"/>
		<path class="st0" d="M1548.41,295.43v132.11c0,19.06-4.32,33.96-12.92,44.7c-8.64,10.74-20.47,16.15-35.49,16.15
			c-15.02,0-26.77-5.49-35.29-16.47c-8.52-10.98-12.76-26-12.76-45.06V295.43h-47.08v132.11c0,17.24,2.3,32.5,6.9,45.71
			c4.56,13.2,11.02,24.39,19.3,33.43c8.32,9.08,18.33,15.99,30.12,20.67c11.75,4.72,24.67,7.07,38.8,7.07
			c30.04,0,53.46-9.37,70.26-28.06c16.8-18.69,25.24-45.22,25.24-79.5V295.43H1548.41z"/>
		<path class="st0" d="M1837.66,295.19l-67.65,82.41l-66.34-82.41h-45.1v235.3h46.39V426.96c0-3.37-0.06-7.5-0.17-12.44
			c-0.11-4.92-0.16-9.91-0.16-14.96c0-5.04-0.05-9.75-0.17-14.11c-0.11-4.38-0.17-7.68-0.17-9.92c1.56,3.14,3.97,7.22,7.22,12.27
			c3.25,5.05,58.49,70.91,58.49,70.91s56.5-65.86,59.75-70.91c3.25-5.04,5.66-9.13,7.22-12.27c0,2.24-0.05,5.54-0.17,9.92
			c-0.11,4.36-0.17,9.07-0.17,14.11c0,5.05-0.05,10.04-0.16,14.96c-0.12,4.94-0.17,9.07-0.17,12.44v103.53h46.39v-235.3H1837.66z"/>
		<g>
			<path class="st0" d="M319.53,326.93c-0.57-1.05-1.17-2.06-1.78-3.07c-31.05-51.12-85.11-79.62-140.79-80.31
				c-30.24-0.4-60.93,7.43-88.67,24.27C9.48,315.74-15.6,418.46,32.33,497.32c44.66,73.57,137.08,100.3,213.27,64.6
				c5.49-2.54,10.9-5.41,16.19-8.64c11.47-6.94,21.76-15.1,30.89-24.15h-0.28l20.27-52.97l29.07-75.87v-0.04
				C340.2,375.18,332.97,350.06,319.53,326.93z M263.24,489c-3.59,9.08-9.08,16.88-16.59,23.38c-4.76,4.12-10.3,7.63-16.59,10.58
				c-3.67,1.7-7.59,3.23-11.75,4.52c-11.39,3.51-25.03,5.33-40.94,5.33c-19.46,0-37.15-3.8-53.1-11.31
				c-15.91-7.51-28.34-17.81-37.11-30.81l33.47-29.92c8.2,9.57,17.32,16.35,27.34,20.43c10.09,4.12,20.75,6.14,32.02,6.14
				c13.97,0,24.15-2.02,30.69-5.94c6.5-4,9.77-10.42,9.77-19.26c0-3.8-0.69-7.03-1.98-9.81c-1.33-2.75-3.84-5.37-7.47-7.79
				c-3.63-2.42-8.92-4.72-15.75-6.94c-6.86-2.18-15.71-4.52-26.53-6.99c-10.62-2.42-20.43-5.29-29.35-8.6
				c-8.96-3.31-16.64-7.51-23.05-12.6c-6.42-5.05-11.39-11.51-14.9-19.22c-3.55-7.79-5.29-17.4-5.29-28.87
				c0-10.62,2.1-20.11,6.42-28.51c4.36-8.44,10.26-15.54,17.73-21.44c7.55-5.81,16.31-10.3,26.41-13.41
				c5.9-1.82,12.03-3.07,18.45-3.8c4.48-0.57,9.13-0.81,13.89-0.81c18.09,0,33.96,3.19,47.56,9.57
				c13.61,6.46,25.92,15.38,36.98,26.85l-33.51,32.54c-7.47-7.75-15.55-13.65-24.02-17.77c-8.52-4.08-18.09-6.14-28.67-6.14
				c-3.59,0-6.82,0.2-9.73,0.65c-2.14,0.28-4.08,0.69-5.85,1.21c-4.24,1.17-7.63,2.83-10.34,4.8c-2.62,1.98-4.52,4.16-5.61,6.62
				c-1.09,2.42-1.66,4.97-1.66,7.59c0,3.8,0.73,6.94,2.14,9.45c1.45,2.54,3.96,4.85,7.47,6.78c3.55,2.02,8.28,3.92,14.29,5.65
				c4.32,1.29,9.49,2.71,15.5,4.24c2.3,0.57,4.76,1.17,7.35,1.78c9.29,2.22,18.53,4.76,27.7,7.75c8.28,2.71,15.87,6.34,22.69,10.94
				c0.73,0.48,1.45,0.97,2.18,1.49c7.39,5.33,13.4,12.07,18.05,20.27c4.64,8.16,6.99,18.49,6.99,31.13c0,1.78-0.04,3.55-0.16,5.29
				C267.89,473.13,266.15,481.37,263.24,489z"/>
			<path class="st0" d="M429.35,433.6H376.3l14.9-42.27c1.74-4.8,3.35-9.53,4.89-14.13c0.65-1.98,1.29-3.96,1.94-5.89
				c2.1-6.38,3.67-11.83,4.85-16.27c1.05,4.44,2.66,9.89,4.8,16.27c2.06,6.46,4.32,13.16,6.74,20.03L429.35,433.6z"/>
			<path class="st0" d="M505.3,307.27c0,9.89-0.85,19.58-2.46,28.99c-0.57,3.43-1.25,6.82-2.06,10.17
				c-5.65,23.98-16.35,46.03-30.97,64.93l-12.4-32.62l-24.67-65.01l-6.38-16.76H381.3l-5.17,13.49l-34.4,89.8v0.04l-29.07,75.87
				c-15.5-2.02-30.36-6.14-44.29-12.07c0.12-1.74,0.16-3.51,0.16-5.29c0-12.64-2.34-22.97-6.99-31.13
				c-4.64-8.2-10.66-14.94-18.05-20.27c-0.73-0.52-1.45-1.01-2.18-1.49c-6.82-4.6-14.41-8.24-22.69-10.94
				c-9.17-2.99-18.41-5.53-27.7-7.75c-2.58-0.61-5.05-1.21-7.35-1.78c-7.43-14.37-12.88-29.96-15.95-46.35
				c2.91-0.44,6.14-0.65,9.73-0.65c10.58,0,20.15,2.06,28.67,6.14c8.48,4.12,16.55,10.01,24.02,17.77l33.51-32.54
				c-11.06-11.47-23.38-20.39-36.98-26.85c-13.61-6.38-29.48-9.57-47.56-9.57c-4.76,0-9.41,0.24-13.89,0.81
				c1.37-17.77,5.45-34.8,11.83-50.63c25.24-62.5,86.45-106.63,158.03-106.63c59.35,0,111.6,30.36,142.09,76.39
				C494.92,240.24,505.3,272.54,505.3,307.27z"/>
			<path class="st0" d="M445.26,477.41l1.17,3.35c-1.13-1.09-2.26-2.22-3.35-3.35H445.26z"/>
			<path class="st0" d="M429.35,433.6h-17.04c-7.51-15.34-12.8-32.14-15.42-49.95c-0.32-2.14-0.57-4.32-0.81-6.46
				c0.65-1.98,1.29-3.96,1.94-5.89c2.1-6.38,3.67-11.83,4.85-16.27c1.05,4.44,2.66,9.89,4.8,16.27c2.06,6.46,4.32,13.16,6.74,20.03
				L429.35,433.6z"/>
			<path class="st0" d="M734.19,382.12c-5.37,39.21-24.31,74.86-52.49,101.26h-77.16V296.97h-46.39v232.12
				c-0.16-0.04-0.28-0.04-0.4-0.04c-16.07-0.69-31.7-3.67-46.47-8.68l-41.47-109.02l-12.4-32.62l-24.67-65.01l-6.38-16.76h-19.58
				c13.57-34.64,38.24-64.2,70.3-83.66c18.9-11.51,40.38-19.46,63.63-22.89c93.07-13.65,179.55,50.71,193.24,143.78
				C736.33,350.51,736.33,366.62,734.19,382.12z"/>
			<path class="st0" d="M414.41,391.33c-2.42-6.86-4.68-13.57-6.74-20.03c-2.14-6.38-3.75-11.83-4.8-16.27
				c-1.17,4.44-2.75,9.89-4.85,16.27c-0.65,1.94-1.29,3.92-1.94,5.89c-1.53,4.6-3.15,9.33-4.89,14.13l-14.9,42.27h53.05
				L414.41,391.33z M414.41,391.33c-2.42-6.86-4.68-13.57-6.74-20.03c-2.14-6.38-3.75-11.83-4.8-16.27
				c-1.17,4.44-2.75,9.89-4.85,16.27c-0.65,1.94-1.29,3.92-1.94,5.89c-1.53,4.6-3.15,9.33-4.89,14.13l-14.9,42.27h53.05
				L414.41,391.33z M557.87,430.86c-10.38-34.64-30.77-63.51-57.09-84.43c-2.02-1.57-4.04-3.11-6.14-4.6
				c-18.45-13.36-39.53-22.97-61.9-28.1l24.67,65.01l12.4,32.62l41.47,109.02l3.31,8.76h-51.04l-17.12-48.37l-1.17-3.35h-84.91
				l-18.21,51.72h-49.74l20.27-52.97l29.07-75.87v-0.04l34.4-89.8c-10.09,1.13-20.23,3.15-30.32,6.18
				c-9.17,2.75-17.97,6.22-26.29,10.3c-34.97,17.12-62.1,45.38-78.21,78.98c0.73,0.48,1.45,0.97,2.18,1.49
				c7.39,5.33,13.4,12.07,18.05,20.27c4.64,8.16,6.99,18.49,6.99,31.13c0,1.78-0.04,3.55-0.16,5.29
				c-0.48,9.04-2.22,17.28-5.13,24.91c-3.59,9.08-9.08,16.88-16.59,23.38c-4.76,4.12-10.3,7.63-16.59,10.58
				c0.48,1.9,1.01,3.8,1.57,5.69c3.55,11.79,8.24,22.89,13.97,33.27c37.79,68.88,119.72,104.41,198.01,80.95
				c18.82-5.65,35.98-14.25,51.04-25.19c30.4-21.96,52.41-53.34,63.11-88.63c0.16-0.44,0.28-0.89,0.4-1.33v-95.85
				C558.07,431.54,557.95,431.18,557.87,430.86z M414.41,391.33c-2.42-6.86-4.68-13.57-6.74-20.03c-2.14-6.38-3.75-11.83-4.8-16.27
				c-1.17,4.44-2.75,9.89-4.85,16.27c-0.65,1.94-1.29,3.92-1.94,5.89c-1.53,4.6-3.15,9.33-4.89,14.13l-14.9,42.27h53.05
				L414.41,391.33z M414.41,391.33c-2.42-6.86-4.68-13.57-6.74-20.03c-2.14-6.38-3.75-11.83-4.8-16.27
				c-1.17,4.44-2.75,9.89-4.85,16.27c-0.65,1.94-1.29,3.92-1.94,5.89c-1.53,4.6-3.15,9.33-4.89,14.13l-14.9,42.27h53.05
				L414.41,391.33z"/>
			<path class="st0" d="M734.19,382.12c-28.3-40.46-73.89-68.32-126.98-72.23c-0.89-0.08-1.78-0.12-2.66-0.16v173.66h116.45v45.75
				H560.01c-0.65,0-1.25-0.04-1.86-0.04V313.32c-19.91,4.36-38.56,12.19-55.32,22.93c-2.79,1.78-5.53,3.63-8.2,5.57
				c-14.17,10.3-26.77,22.73-37.23,36.9l12.4,32.62l41.47,109.02l3.31,8.76h-51.04l-17.12-48.37l-1.17-3.35h-21
				c-0.81,57.05,26.81,108.65,70.38,140.27c24.75,18.01,54.67,29.52,87.42,31.94c80.47,5.98,151.98-45.02,175.07-118.87v-0.04
				c3.88-12.23,6.34-25.07,7.35-38.4C767.46,451.57,755.92,413.17,734.19,382.12z"/>
			<path class="st0" d="M558.15,529.09v0.04h1.86C559.36,529.13,558.76,529.09,558.15,529.09z"/>
		</g>
	</g>
	<g>
		<path class="st0" d="M1340.81,22.63l-1.76,7.76c-2.44,0.08-5.6,0.43-9.52,1.06c-3.92,0.63-6.82,1.22-8.7,1.76
			c-3.29,1.02-5.64,2.59-7.05,4.7c-1.41,2.12-2.42,4.44-3.06,6.98l-28.29,121.83c-0.15,0.53-0.27,1.15-0.35,1.85
			c-0.09,0.71-0.12,1.33-0.12,1.88c0,1.8,0.4,3.33,1.18,4.58c0.79,1.26,2.2,2.35,4.23,3.29c1.17,0.55,3.76,1.2,7.76,1.94
			c4,0.75,6.98,1.2,8.93,1.35l-1.76,7.76h-75.2l1.76-7.76c2.2-0.15,5.33-0.39,9.4-0.71c4.08-0.31,6.98-0.78,8.71-1.41
			c3.04-1.09,5.36-2.6,6.93-4.52c1.57-1.92,2.62-4.25,3.17-6.99l28.2-121.97c0.16-0.71,0.27-1.41,0.36-2.12
			c0.07-0.71,0.11-1.41,0.11-2.12c0-1.56-0.33-2.94-1-4.11s-2.05-2.23-4.17-3.17c-2.11-0.94-5-1.82-8.63-2.64
			c-3.65-0.82-6.33-1.31-8.05-1.47l1.77-7.76H1340.81z"/>
		<path class="st0" d="M1461.06,175.74l-1.77,7.52c-7.09,2.82-12.59,4.88-16.51,6.17c-3.93,1.29-7.9,1.94-11.91,1.94
			c-6.3,0-11.01-1.63-14.15-4.88c-3.14-3.25-4.71-7.27-4.71-12.06c0-1.73,0.15-3.63,0.47-5.71c0.31-2.08,0.82-4.53,1.53-7.35
			l11.6-43.88c0.88-3.37,1.56-6.43,2.08-9.17c0.51-2.75,0.75-4.94,0.75-6.59c0-5.25-1.25-9.41-3.74-12.47
			c-2.49-3.06-6.18-4.59-11.07-4.59c-4.75,0-10.07,1.57-15.98,4.71c-5.9,3.14-11.45,7.69-16.66,13.65l-20.07,86.33h-21.95
			l17.63-76.23c0.38-1.88,0.95-4.61,1.69-8.18c0.75-3.57,1.13-6.45,1.13-8.65c0-4.39-0.75-7.33-2.24-8.82
			c-1.5-1.49-4.49-2.24-8.97-2.24c-1.73,0-3.95,0.29-6.62,0.88c-2.68,0.59-4.77,1.08-6.27,1.47l1.78-7.52
			c6.13-2.74,11.56-4.78,16.3-6.11c4.72-1.33,8.78-2,12.16-2c6.22,0,10.67,1.69,13.35,5.06c2.68,3.37,4.11,8.04,4.25,14h0.71
			c8.58-6.9,16.01-12.02,22.25-15.35c6.23-3.33,13.33-5,21.3-5c7.5,0,13.35,2.18,17.56,6.53c4.22,4.35,6.32,10.06,6.32,17.12
			c0,1.41-0.22,3.92-0.64,7.53c-0.43,3.61-1.13,7.18-2.07,10.71l-9.88,37.76c-0.7,2.51-1.39,5.39-2.05,8.65
			c-0.67,3.26-1,5.79-1,7.59c0,4.47,0.98,7.51,2.94,9.12c1.95,1.61,5.17,2.41,9.64,2.41c1.5,0,3.62-0.25,6.41-0.76
			C1457.42,176.81,1459.56,176.29,1461.06,175.74z"/>
		<path class="st0" d="M1510.52,192.89c-11.59,0-21.25-2.06-28.97-6.17c-7.72-4.11-11.56-9.5-11.56-16.16c0-3.13,1.13-6.07,3.4-8.81
			c2.28-2.74,5.06-4.11,8.35-4.11c3.13,0,5.65,0.73,7.57,2.17c1.92,1.45,3.43,3.15,4.53,5.11c1.17,2.04,2.21,4.47,3.12,7.29
			c0.89,2.82,1.66,5.13,2.29,6.93c1.18,1.33,2.8,2.57,4.87,3.7c2.08,1.14,5.07,1.7,8.99,1.7c8.46,0,14.87-2.12,19.21-6.36
			c4.35-4.24,6.52-9.98,6.52-17.2c0-5.33-2.03-9.59-6.11-12.77c-4.07-3.18-10.14-6.1-18.21-8.77c-2.89-0.94-6.31-2.37-10.22-4.3
			c-3.92-1.92-7.05-3.98-9.4-6.18c-2.82-2.51-5.1-5.49-6.83-8.95c-1.72-3.45-2.57-7.54-2.57-12.25c0-10.05,4.48-18.74,13.44-26.08
			c8.97-7.34,20-11.01,33.09-11.01c3.04,0,6.33,0.16,9.87,0.47c3.51,0.32,7.4,1.18,11.63,2.59c3.69,1.26,6.82,3.11,9.4,5.58
			c2.59,2.47,3.88,5.66,3.88,9.58c0,3.21-1.09,6.13-3.24,8.75c-2.15,2.63-5,3.94-8.51,3.94c-2.91,0-5.29-0.62-7.17-1.88
			c-1.88-1.25-3.45-2.94-4.7-5.05c-1.25-2.12-2.28-4.38-3.06-6.82c-0.78-2.43-1.65-4.82-2.59-7.17c-1.48-0.62-2.82-1.06-4-1.29
			s-2.75-0.35-4.7-0.35c-7.68,0-13.49,2.06-17.45,6.18c-3.96,4.12-5.94,9.02-5.94,14.67c0,5.5,1.78,9.64,5.36,12.42
			c3.56,2.79,9.46,5.67,17.67,8.65c10.66,3.85,18.39,8.24,23.22,13.19c4.81,4.94,7.22,11.07,7.22,18.36
			c0,11.93-4.59,21.65-13.74,29.14C1536.01,189.14,1524.46,192.89,1510.52,192.89z"/>
		<path class="st0" d="M1636.47,176.56l-1.76,7.52c-7.21,2.9-12.96,4.92-17.27,6.05c-4.32,1.13-7.99,1.7-11.06,1.7
			c-6.26,0-10.96-1.63-14.1-4.88c-3.13-3.25-4.7-7.27-4.7-12.06c0-1.8,0.16-3.69,0.47-5.65c0.32-1.96,0.83-4.43,1.53-7.41
			l12.42-49.99c0.62-2.75,1.22-5.69,1.82-8.82c0.58-3.14,0.88-5.8,0.88-8c0-4.39-0.73-7.31-2.18-8.76
			c-1.45-1.45-4.39-2.18-8.86-2.18c-1.72,0-4.01,0.28-6.85,0.82c-2.86,0.55-5.02,1.02-6.51,1.41l1.76-7.52
			c6.11-2.74,11.59-4.78,16.44-6.11c4.86-1.33,8.7-2,11.52-2c6.42,0,11.08,1.53,13.98,4.59c2.89,3.06,4.34,7.17,4.34,12.35
			c0,1.41-0.15,3.33-0.47,5.76c-0.31,2.43-0.78,4.86-1.41,7.29l-12.48,49.99c-0.78,3.06-1.46,6.06-2.04,9
			c-0.59,2.94-0.88,5.35-0.88,7.24c0,4.47,0.99,7.53,2.98,9.17c1.99,1.65,5.22,2.47,9.67,2.47c1.47,0,3.6-0.19,6.37-0.59
			C1632.87,177.58,1635,177.11,1636.47,176.56z M1644.82,26.27c0,4.47-1.45,8.36-4.34,11.69c-2.91,3.33-6.51,4.99-10.81,4.99
			c-4.01,0-7.45-1.59-10.34-4.76c-2.91-3.17-4.35-6.79-4.35-10.87c0-4.31,1.45-8.07,4.35-11.28c2.89-3.21,6.33-4.82,10.34-4.82
			c4.45,0,8.1,1.51,10.92,4.52C1643.41,18.77,1644.82,22.28,1644.82,26.27z"/>
		<path class="st0" d="M1726.06,173.25h-0.83c-1.72,1.49-3.95,3.43-6.69,5.82c-2.73,2.39-5.59,4.49-8.56,6.29
			c-3.76,2.35-7.22,4.15-10.39,5.41c-3.17,1.26-7.06,1.88-11.68,1.88c-11.35,0-20.25-4.1-26.7-12.29
			c-6.46-8.19-9.68-19.35-9.68-33.46c0-9.88,1.74-19.41,5.23-28.58c3.49-9.17,8.25-17.33,14.29-24.47
			c5.88-6.9,12.95-12.48,21.21-16.76c8.26-4.27,16.91-6.41,25.91-6.41c5.42,0,10.79,0.71,16.1,2.12c5.33,1.41,9.72,3.14,13.17,5.17
			l9.18-39.95c0.47-2.12,0.8-3.76,0.99-4.94c0.2-1.18,0.3-2.47,0.3-3.88c0-2.82-0.57-4.98-1.71-6.46c-1.13-1.49-2.72-2.59-4.75-3.29
			c-1.88-0.71-4.47-1.18-7.76-1.41c-3.29-0.24-6.27-0.51-8.93-0.82l1.65-7.17l47.58-2.59l1.18,1.76l-32.59,140.89
			c-0.62,2.59-1.27,5.54-1.94,8.87c-0.67,3.33-0.99,5.86-0.99,7.58c0,4.47,0.94,7.5,2.82,9.11c1.88,1.61,5.05,2.41,9.51,2.41
			c1.48,0,3.6-0.24,6.35-0.71s4.86-0.98,6.35-1.53l-1.77,7.52c-6.59,2.98-12.05,5.05-16.36,6.23c-4.32,1.18-8.31,1.76-12,1.76
			c-5.65,0-10.14-1.47-13.48-4.41C1727.71,184.01,1726.06,179.44,1726.06,173.25z M1742.77,98.32c-0.15-2.27-0.74-4.49-1.76-6.65
			c-1.03-2.16-2.31-4.1-3.88-5.83c-1.81-1.96-4.14-3.59-7-4.88c-2.86-1.29-6.26-1.94-10.17-1.94c-6.05,0-11.75,1.88-17.12,5.65
			c-5.37,3.77-10.09,8.78-14.17,15.06c-3.92,6.04-7.06,13.31-9.41,21.82c-2.35,8.51-3.53,17.04-3.53,25.59
			c0,4.78,0.27,9.02,0.82,12.71c0.56,3.69,1.61,7.1,3.18,10.23c1.48,2.9,3.6,5.2,6.35,6.88c2.73,1.69,6.38,2.53,10.92,2.53
			c4.3,0,8.99-1.29,14.04-3.88c5.06-2.59,10.67-7.1,16.86-13.53L1742.77,98.32z"/>
		<path class="st0" d="M1890.52,95.17c0,8.32-2.61,15.46-7.82,21.42c-5.21,5.96-12.79,10.71-22.73,14.24
			c-7.29,2.67-14.64,4.83-22.09,6.48c-7.45,1.65-15.67,3.02-24.68,4.12c0,12.38,2.29,21.84,6.88,28.38
			c4.58,6.54,11.29,9.81,20.15,9.81c7.83,0,14.74-1.96,20.74-5.88c5.99-3.91,11.89-9.75,17.69-17.51l6.69,4.94
			c-6.27,9.56-14.1,17.2-23.5,22.91s-19.16,8.58-29.25,8.58c-13.88,0-24.47-3.88-31.79-11.65c-7.33-7.76-10.98-18.78-10.98-33.05
			c0-9.88,1.53-19.31,4.64-28.29c3.09-8.98,7.62-17.19,13.57-24.64c5.8-7.29,12.9-13.17,21.32-17.64c8.42-4.47,17.72-6.7,27.9-6.7
			c11.28,0,19.64,2.29,25.1,6.89C1887.8,82.16,1890.52,88.03,1890.52,95.17z M1868.9,92.28c0-3.05-0.43-5.45-1.3-7.21
			c-0.85-1.76-1.95-3.07-3.29-3.93c-1.41-0.94-2.89-1.52-4.45-1.76c-1.57-0.24-3.18-0.35-4.82-0.35c-9.4,0-18.08,5.16-26.02,15.48
			c-7.95,10.32-12.99,23.18-15.1,38.58c5.48-0.78,11.68-1.9,18.57-3.34c6.89-1.44,12.62-3.34,17.16-5.68
			c6.51-3.36,11.34-7.68,14.51-12.96C1867.32,105.82,1868.9,99.55,1868.9,92.28z"/>
	</g>
</g>
</svg>
