<?xml version="1.0" encoding="utf-8"?>
<!-- Generator: Adobe Illustrator 23.0.0, SVG Export Plug-In . SVG Version: 6.00 Build 0)  -->
<svg version="1.1" id="Layer_1" xmlns="http://www.w3.org/2000/svg" xmlns:xlink="http://www.w3.org/1999/xlink" x="0px" y="0px"
	 viewBox="0 0 200 200" style="enable-background:new 0 0 200 200;" xml:space="preserve">
<style type="text/css">
	.st0{fill:#FFFFFF;}
</style>
<path class="st0" d="M100,1.56C45.64,1.56,1.56,45.64,1.56,100c0,54.37,44.07,98.44,98.44,98.44c54.36,0,98.44-44.07,98.44-98.44
	C198.44,45.64,154.37,1.56,100,1.56z M139.29,84.69c0.04,0.86,0.05,1.74,0.05,2.62c0,26.74-20.34,57.56-57.56,57.56
	c-11.42,0-22.06-3.35-31.01-9.09c1.58,0.19,3.19,0.28,4.83,0.28c9.48,0,18.2-3.23,25.12-8.66c-8.85-0.16-16.32-6.01-18.89-14.04
	c1.23,0.24,2.5,0.36,3.8,0.36c1.85,0,3.63-0.24,5.33-0.71c-9.26-1.85-16.23-10.03-16.23-19.84v-0.25c2.73,1.51,5.85,2.42,9.17,2.53
	c-5.43-3.63-9-9.83-9-16.84c0-3.71,1-7.18,2.74-10.18c9.98,12.25,24.89,20.29,41.7,21.14c-0.35-1.48-0.52-3.02-0.52-4.61
	c0-11.17,9.06-20.23,20.22-20.23c5.82,0,11.08,2.46,14.77,6.39c4.61-0.9,8.94-2.59,12.85-4.9c-1.51,4.72-4.71,8.68-8.89,11.19
	c4.09-0.49,7.99-1.58,11.62-3.18C146.68,78.27,143.25,81.83,139.29,84.69z"/>
</svg>
