<?xml version="1.0" encoding="utf-8"?>
<!-- Generator: Adobe Illustrator 23.0.0, SVG Export Plug-In . SVG Version: 6.00 Build 0)  -->
<svg version="1.1" id="Layer_1" xmlns="http://www.w3.org/2000/svg" xmlns:xlink="http://www.w3.org/1999/xlink" x="0px" y="0px"
	 viewBox="0 0 200 200" style="enable-background:new 0 0 200 200;" xml:space="preserve">
<style type="text/css">
	.st0{fill:#FFFFFF;}
</style>
<g>
	<path class="st0" d="M94.04,130.01c-0.39,0.5-0.84,0.89-1.38,1.19c-0.5,0.35-0.9,0.49-1.24,0.49c-0.4,0-0.75-0.1-0.9-0.35
		c-0.2-0.25-0.3-0.65-0.3-1.14v-17.27h-4.47v18.8c0,1.34,0.25,2.33,0.74,2.98c0.55,0.7,1.34,1.04,2.38,1.04
		c0.84,0,1.69-0.25,2.59-0.74c0.89-0.45,1.78-1.14,2.58-2.08v2.48h4.51v-22.48h-4.51V130.01z"/>
	<path class="st0" d="M110.46,112.7c-0.7,0-1.39,0.19-2.09,0.54c-0.69,0.35-1.33,0.9-1.93,1.54v-9.77h-4.52v30.41h4.52v-1.74
		c0.6,0.7,1.24,1.19,1.93,1.54c0.7,0.34,1.44,0.49,2.34,0.49c1.33,0,2.38-0.45,3.07-1.29c0.7-0.84,1.04-2.08,1.04-3.67v-12.45
		c0-1.84-0.39-3.23-1.14-4.17C112.95,113.19,111.85,112.7,110.46,112.7z M110.22,130.16c0,0.74-0.15,1.24-0.4,1.54
		c-0.25,0.35-0.64,0.5-1.23,0.5c-0.35,0-0.7-0.1-1.04-0.25c-0.35-0.15-0.75-0.45-1.09-0.79v-13.99c0.3-0.3,0.64-0.55,0.94-0.7
		c0.3-0.15,0.64-0.2,0.94-0.2c0.6,0,1.09,0.2,1.39,0.6c0.34,0.4,0.5,0.94,0.5,1.69V130.16z"/>
	<polygon class="st0" points="68.24,109.42 73.45,109.42 73.45,135.42 78.52,135.42 78.52,109.42 83.78,109.42 83.78,105.01 
		68.24,105.01 	"/>
	<path class="st0" d="M99.3,87.84c0.7,0,1.24-0.19,1.63-0.59c0.4-0.4,0.6-0.89,0.6-1.54v-13.5c0-0.54-0.2-0.99-0.6-1.29
		c-0.44-0.35-0.99-0.5-1.63-0.5c-0.6,0-1.14,0.15-1.49,0.5c-0.39,0.3-0.6,0.74-0.6,1.29v13.5c0,0.64,0.2,1.19,0.55,1.54
		C98.11,87.64,98.66,87.84,99.3,87.84z"/>
	<path class="st0" d="M124.01,112.4c-2.03,0-3.67,0.64-4.91,1.84c-1.29,1.24-1.94,2.83-1.94,4.76v10.07c0,2.18,0.6,3.87,1.73,5.11
		c1.14,1.24,2.73,1.84,4.77,1.84c2.23,0,3.92-0.55,5.01-1.74c1.14-1.14,1.74-2.87,1.74-5.21v-1.14h-4.67v1.04
		c0,1.29-0.15,2.18-0.44,2.53c-0.3,0.4-0.79,0.6-1.54,0.6c-0.7,0-1.24-0.2-1.54-0.69c-0.3-0.45-0.4-1.24-0.4-2.43v-4.22h8.59V119
		c0-2.13-0.6-3.72-1.69-4.86C127.64,113,126.05,112.4,124.01,112.4z M125.74,121.23h-3.92v-2.28c0-0.89,0.1-1.59,0.45-1.98
		c0.3-0.4,0.79-0.65,1.54-0.65c0.69,0,1.19,0.25,1.49,0.65c0.3,0.4,0.44,1.09,0.44,1.98V121.23z"/>
	<path class="st0" d="M100.01,1.56C45.64,1.56,1.57,45.64,1.57,100c0,54.36,44.08,98.44,98.44,98.44
		c54.36,0,98.43-44.07,98.43-98.44C198.43,45.64,154.37,1.56,100.01,1.56z M110.76,66.75h5.06v18.96c0,0.6,0.1,0.99,0.35,1.29
		c0.2,0.25,0.55,0.4,0.99,0.4c0.4,0,0.84-0.19,1.44-0.55c0.55-0.35,1.09-0.79,1.54-1.34V66.75h5.06v24.71h-5.06v-2.73
		c-0.94,1.04-1.89,1.79-2.88,2.33c-1.04,0.49-1.98,0.74-2.98,0.74c-1.14,0-2.04-0.35-2.63-1.09c-0.6-0.74-0.9-1.83-0.9-3.32V66.75z
		 M92.01,72.41c0-1.94,0.69-3.43,2.03-4.56c1.39-1.14,3.22-1.74,5.51-1.74c2.08,0,3.81,0.6,5.15,1.84c1.29,1.19,1.99,2.73,1.99,4.61
		v12.75c0,2.13-0.64,3.77-1.99,4.96c-1.29,1.24-3.13,1.84-5.41,1.84c-2.18,0-3.97-0.64-5.31-1.88c-1.29-1.24-1.98-2.88-1.98-5.01
		V72.41z M78.27,57.97l3.67,13.4h0.4l3.52-13.4h5.76l-6.6,19.6v13.89h-5.7V78.21l-6.8-20.24H78.27z M149.22,127.98
		c0,7.73-6.35,14.04-14.04,14.04H64.82c-7.7,0-14.04-6.3-14.04-14.04v-14.34c0-7.74,6.35-14.09,14.04-14.09h70.35
		c7.69,0,14.04,6.35,14.04,14.09V127.98z"/>
</g>
</svg>
