<?xml version="1.0" encoding="utf-8"?>
<!-- Generator: Adobe Illustrator 22.0.1, SVG Export Plug-In . SVG Version: 6.00 Build 0)  -->
<svg version="1.1" id="Layer_1" xmlns="http://www.w3.org/2000/svg" xmlns:xlink="http://www.w3.org/1999/xlink" x="0px" y="0px"
	 viewBox="0 0 76.7 40" style="enable-background:new 0 0 76.7 40;" xml:space="preserve">
<style type="text/css">
	.st0{fill:#00A4E4;}
	.st1{fill:none;}
	.st2{enable-background:new    ;}
</style>
<g>
	<path class="st0" d="M23.7,18.4v1.8c0,0.9-0.7,1.6-1.6,1.6h-1.2C19.7,25,16.7,27,14.5,27s-5.2-2-6.4-5.2H7c-0.9,0-1.6-0.7-1.6-1.6
		v-1.8c0-0.6,0.3-1.2,0.9-1.4c0-2.5,0.8-4.5,2.2-5.9s3.5-2,6.1-2s4.7,0.7,6.1,2c1.4,1.4,2.2,3.4,2.2,5.9
		C23.4,17.3,23.7,17.8,23.7,18.4L23.7,18.4z M20.8,19c0-0.5,0-0.9-0.1-1.3c-0.8-0.7-2.2-1.3-4-1.5c0.2,0.3,0.4,0.6,0.6,1.1
		c-1.1-0.9-3.3-0.7-4.9-2.6c-0.1-0.1-0.2-0.2-0.2-0.3l0,0l0,0c-0.3-0.4-0.4-0.6-0.4-0.4c0,2.2-1.6,4-3.4,4.2c0,0.2,0,0.5,0,0.8
		c0,0.9,0.2,1.8,0.4,2.6c1,1.2,2.6,1.5,4.1,1.6c0.3-0.4,0.9-0.7,1.6-0.7c1,0,1.7,0.5,1.7,1.2s-0.8,1.2-1.7,1.2
		c-0.7,0-1.4-0.3-1.6-0.8c-1-0.1-2.1-0.2-3.1-0.7c1.4,2.1,3.6,3.1,4.9,3.1C16.7,26.6,20.8,23.9,20.8,19L20.8,19z M21.9,16.7
		c-0.1-4.5-2.7-6.8-7.4-6.8s-7.3,2.4-7.4,6.8h0.6C7.9,15.2,8.4,14,9.1,13c1.2-1.5,3-2.3,5.3-2.3s4.1,0.8,5.3,2.3
		c0.7,1,1.2,2.2,1.5,3.7H21.9z"/>
	<g>
		<rect x="27.3" y="10.2" class="st1" width="44" height="20.7"/>
		<g class="st2">
			<path class="st0" d="M32.4,11.4h-2.1v5.7h-0.9v-5.7h-2.1v-0.7h5V11.4z"/>
			<path class="st0" d="M36.4,15.4h-2.7l-0.6,1.6h-0.9l2.5-6.4h0.7l2.4,6.4H37L36.4,15.4z M34,14.7h2.2l-1.1-2.9h0L34,14.7z"/>
			<path class="st0" d="M39.6,16.4h3v0.7h-3.9v-6.4h0.9V16.4z"/>
			<path class="st0" d="M45.2,14.2h-0.7v2.9h-0.9v-6.4h0.9v2.8h0.7l2.3-2.8h1l0,0l-2.5,3.1l2.7,3.3l0,0h-1L45.2,14.2z"/>
		</g>
		<g class="st2">
			<path class="st0" d="M32.4,20.4h-2.1v5.7h-0.9v-5.7h-2.1v-0.7h5V20.4z"/>
			<path class="st0" d="M38.1,23.5c0,0.8-0.2,1.4-0.7,1.9s-1.1,0.8-1.9,0.8c-0.7,0-1.4-0.3-1.8-0.8S33,24.2,33,23.5v-1.1
				c0-0.8,0.2-1.4,0.7-1.9s1.1-0.8,1.8-0.8c0.8,0,1.4,0.3,1.9,0.8c0.5,0.5,0.7,1.2,0.7,1.9V23.5z M37.2,22.3c0-0.6-0.2-1.1-0.5-1.4
				c-0.3-0.4-0.7-0.6-1.3-0.6c-0.5,0-0.9,0.2-1.2,0.6c-0.3,0.4-0.5,0.9-0.5,1.4v1.1c0,0.6,0.1,1.1,0.5,1.5s0.7,0.6,1.2,0.6
				c0.5,0,1-0.2,1.3-0.6c0.3-0.4,0.5-0.9,0.5-1.5V22.3z"/>
			<path class="st0" d="M45.1,24.5c0-0.3-0.1-0.5-0.3-0.7s-0.6-0.4-1.2-0.5c-0.7-0.2-1.2-0.4-1.6-0.7c-0.4-0.3-0.6-0.7-0.6-1.2
				c0-0.5,0.2-0.9,0.6-1.3c0.4-0.3,0.9-0.5,1.6-0.5c0.7,0,1.3,0.2,1.7,0.6c0.4,0.4,0.6,0.8,0.6,1.3l0,0h-0.8c0-0.4-0.1-0.7-0.4-0.9
				c-0.2-0.2-0.6-0.3-1.1-0.3c-0.4,0-0.8,0.1-1,0.3c-0.2,0.2-0.3,0.4-0.3,0.8c0,0.3,0.1,0.5,0.4,0.7s0.7,0.3,1.2,0.5
				c0.7,0.2,1.2,0.4,1.5,0.7c0.4,0.3,0.5,0.7,0.5,1.2c0,0.5-0.2,0.9-0.6,1.2c-0.4,0.3-1,0.5-1.7,0.5c-0.6,0-1.2-0.2-1.7-0.5
				c-0.5-0.3-0.7-0.8-0.7-1.4l0,0h0.8c0,0.4,0.2,0.7,0.5,0.9c0.3,0.2,0.7,0.3,1.1,0.3c0.4,0,0.8-0.1,1-0.3S45.1,24.8,45.1,24.5z"/>
			<path class="st0" d="M50.7,24.4H48l-0.6,1.6h-0.9l2.5-6.4h0.7l2.4,6.4h-0.9L50.7,24.4z M48.3,23.7h2.2l-1.1-2.9h0L48.3,23.7z"/>
			<path class="st0" d="M53.9,25.4h3v0.7h-3.9v-6.4h0.9V25.4z"/>
			<path class="st0" d="M61.7,23.1h-2.9v2.3h3.4v0.7h-4.2v-6.4h4.2v0.7h-3.3v2.1h2.9V23.1z"/>
			<path class="st0" d="M66.7,24.5c0-0.3-0.1-0.5-0.3-0.7s-0.6-0.4-1.2-0.5c-0.7-0.2-1.2-0.4-1.6-0.7c-0.4-0.3-0.6-0.7-0.6-1.2
				c0-0.5,0.2-0.9,0.6-1.3c0.4-0.3,0.9-0.5,1.6-0.5c0.7,0,1.3,0.2,1.7,0.6c0.4,0.4,0.6,0.8,0.6,1.3l0,0h-0.8c0-0.4-0.1-0.7-0.4-0.9
				c-0.2-0.2-0.6-0.3-1.1-0.3c-0.4,0-0.8,0.1-1,0.3c-0.2,0.2-0.3,0.4-0.3,0.8c0,0.3,0.1,0.5,0.4,0.7s0.7,0.3,1.2,0.5
				c0.7,0.2,1.2,0.4,1.5,0.7c0.4,0.3,0.5,0.7,0.5,1.2c0,0.5-0.2,0.9-0.6,1.2c-0.4,0.3-1,0.5-1.7,0.5c-0.6,0-1.2-0.2-1.7-0.5
				c-0.5-0.3-0.7-0.8-0.7-1.4l0,0h0.8c0,0.4,0.2,0.7,0.5,0.9c0.3,0.2,0.7,0.3,1.1,0.3c0.4,0,0.8-0.1,1-0.3S66.7,24.8,66.7,24.5z"/>
		</g>
	</g>
</g>
</svg>
