<?xml version="1.0" standalone="no"?>
<!DOCTYPE svg PUBLIC "-//W3C//DTD SVG 20010904//EN"
 "http://www.w3.org/TR/2001/REC-SVG-20010904/DTD/svg10.dtd">
<svg version="1.0" xmlns="http://www.w3.org/2000/svg"
 width="1060.000000pt" height="1060.000000pt" viewBox="0 0 1060.000000 1060.000000"
 preserveAspectRatio="xMidYMid meet">
<metadata>
Created by potrace 1.11, written by Peter Selinger 2001-2013
</metadata>
<g transform="translate(0.000000,1060.000000) scale(0.100000,-0.100000)"
fill="#000000" stroke="none">
<path d="M4477 8814 c-1 -1 -33 -5 -72 -8 -721 -59 -1386 -466 -1775 -1086
-30 -47 -75 -127 -101 -178 l-47 -94 -109 -4 c-59 -2 -126 -6 -148 -9 -22 -2
-62 -7 -90 -10 -166 -19 -423 -91 -600 -168 -171 -74 -384 -202 -535 -321 -71
-57 -282 -262 -325 -316 -11 -14 -36 -45 -56 -70 -200 -247 -389 -651 -444
-950 -40 -212 -51 -331 -49 -503 1 -118 10 -247 19 -292 2 -11 7 -42 10 -70
15 -128 79 -349 153 -530 62 -152 207 -402 298 -515 256 -316 520 -529 849
-684 236 -112 514 -192 735 -212 41 -3 84 -8 95 -10 24 -5 307 -5 350 0 17 2
64 7 105 11 41 4 78 9 81 11 3 1 28 6 55 10 27 3 52 8 55 10 3 2 21 6 40 9 56
9 292 82 351 108 l54 24 44 -71 c268 -437 692 -787 1175 -969 121 -45 328
-101 420 -113 28 -3 52 -8 56 -9 17 -11 178 -20 339 -20 199 0 278 6 430 35
309 57 594 173 857 346 l82 54 63 -44 c213 -149 565 -302 788 -343 14 -2 45
-9 70 -14 25 -6 59 -13 75 -15 17 -2 40 -6 51 -8 91 -18 366 -25 519 -13 118
10 142 13 337 52 46 9 175 47 190 55 10 6 23 10 29 10 24 0 230 88 332 142
216 114 393 245 563 415 117 117 125 127 227 263 178 237 307 505 381 790 37
142 42 167 51 240 3 25 8 56 10 70 22 125 22 461 1 576 -2 10 -7 44 -11 74 -4
30 -18 102 -32 160 -13 58 -26 112 -28 120 -2 8 -22 69 -45 135 -51 147 -149
349 -230 474 l-61 94 8 81 c9 101 10 379 0 466 -41 387 -164 730 -376 1055
-346 531 -944 919 -1566 1015 -38 6 -81 13 -95 16 -57 13 -458 12 -564 -2
-291 -36 -544 -115 -807 -251 -77 -40 -114 -54 -117 -45 -2 7 -9 18 -16 25 -7
6 -21 25 -32 42 -22 34 -35 51 -120 150 -205 238 -455 431 -739 570 -131 64
-345 147 -409 159 -11 2 -48 11 -81 19 -33 9 -78 18 -99 21 -21 4 -48 8 -60
11 -74 16 -219 27 -372 29 -74 1 -136 1 -137 0z"/>
</g>
</svg>
